<svg width="1632" height="322" viewBox="0 0 1632 322" fill="none" xmlns="http://www.w3.org/2000/svg">
<path d="M65.8313 57.2629V124.887H222.4V181.765H65.8313V265.064H243.887V321.941H0.0800781V0.384766H236.277V57.2629H65.8313Z" fill="#F5F5F5"/>
<path d="M498.413 321.941L477.835 255.662H359.283L336.922 321.941H266.25L380.771 0.384766H458.144L571.34 321.941H498.413ZM459.054 200.131L419.24 72.9372H418.33L377.191 200.131H459.054Z" fill="#F5F5F5"/>
<path d="M870.583 91.3026C870.583 109.512 866.255 125.484 857.613 139.216C848.967 152.952 836.736 162.509 820.923 167.892L831.676 173.256C843.892 179.828 851.938 189.081 855.816 201.022C859.699 212.962 861.647 227.894 861.647 245.808V275.811C861.647 298.508 866.418 311.043 875.959 313.431V321.941H801.687C799.907 316.573 798.342 309.562 796.992 300.905C795.653 292.239 794.986 284.028 794.986 276.266L794.531 241.336C794.531 227.604 792.146 217.525 787.375 211.105C782.605 204.689 776.64 200.581 769.484 198.785C762.328 196.994 753.08 196.094 741.75 196.094H672.854V321.941H607.104V0.384766H773.063C793.041 0.384766 810.417 4.56876 825.184 12.9318C839.95 21.2995 851.205 32.3493 858.958 46.0806C866.705 59.8026 870.583 74.8799 870.583 91.3026ZM803.487 98.031C803.487 85.1808 799.383 74.9556 791.181 67.3461C782.973 59.727 772.011 55.9172 758.296 55.9172H672.854V141.907H753.372C770.081 141.907 782.61 138.552 790.955 131.843C799.308 125.124 803.487 113.852 803.487 98.031Z" fill="#F5F5F5"/>
<path d="M1050.4 57.2629V321.941H983.291V57.2629H886.227V0.384766H1147.47V57.2629H1050.4Z" fill="#F5F5F5"/>
<path d="M1370.24 122.196V0.384766H1437.34V321.941H1370.24V177.729H1244.99V321.941H1177.89V0.384766H1244.99V122.196H1370.24Z" fill="#F5F5F5"/>
<path d="M1568.4 321.951V102.948H1492.79V59.0721H1499.94C1525.3 59.0721 1544.61 54.22 1557.88 44.5162C1571.15 34.8124 1578.38 21.2988 1579.57 3.97559H1631.03V321.951H1568.4Z" fill="#F5F5F5"/>
</svg>
