<svg width="90" height="19" viewBox="0 0 90 19" fill="none" xmlns="http://www.w3.org/2000/svg">
<path d="M12.6 0.956001V3.86H3.24V7.892H11.712V10.676H3.24V15.14H12.552V18.044H0V0.956001H12.6Z" fill="white" style="mix-blend-mode:difference"/>
<path d="M31.0461 18.044H27.6141L26.2701 14.276H18.7821L17.4621 18.044H14.1261L20.6301 0.956001H24.4221L31.0461 18.044ZM20.4141 9.668L19.7661 11.516H25.2861L24.6141 9.668C24.0541 8.244 23.3501 6.292 22.5021 3.812C21.8301 5.796 21.1341 7.748 20.4141 9.668Z" fill="white" style="mix-blend-mode:difference"/>
<path d="M46.6479 13.508L46.7919 16.052C46.8079 16.868 46.9839 17.532 47.3199 18.044H43.9839C43.6959 17.564 43.5439 16.884 43.5279 16.004L43.4559 14.132C43.4079 13.092 43.1679 12.372 42.7359 11.972C42.3199 11.556 41.6479 11.348 40.7199 11.348H36.4959V18.044H33.2559V0.956001H41.0079C42.9119 0.956001 44.3919 1.388 45.4479 2.252C46.5039 3.116 47.0319 4.292 47.0319 5.78C47.0319 7.828 46.0799 9.188 44.1759 9.86C45.0399 10.132 45.6559 10.564 46.0239 11.156C46.4079 11.732 46.6159 12.516 46.6479 13.508ZM36.4959 3.62V8.804H40.8159C41.7279 8.804 42.4319 8.58 42.9279 8.132C43.4399 7.668 43.6959 7.004 43.6959 6.14C43.6959 5.324 43.4319 4.7 42.9039 4.268C42.3919 3.836 41.6559 3.62 40.6959 3.62H36.4959Z" fill="white" style="mix-blend-mode:difference"/>
<path d="M48.4892 0.956001H62.6972V3.86H57.2252V18.044H53.9612V3.86H48.4892V0.956001Z" fill="white" style="mix-blend-mode:difference"/>
<path d="M76.4771 7.82V0.956001H79.7171V18.044H76.4771V10.748H68.5331V18.044H65.2931V0.956001H68.5331V7.82H76.4771Z" fill="white" style="mix-blend-mode:difference"/>
<path d="M87.4185 0.956001H89.9865V18.044H86.7465V6.524H82.8105V4.244L83.1945 4.22C84.4425 4.14 85.3945 3.86 86.0505 3.38C86.7225 2.884 87.1785 2.076 87.4185 0.956001Z" fill="white" style="mix-blend-mode:difference"/>
</svg>
